<?xml version="1.0" encoding="UTF-8"?> <!-- Generator: Adobe Illustrator 21.1.0, SVG Export Plug-In . SVG Version: 6.00 Build 0) --> <svg xmlns="http://www.w3.org/2000/svg" xmlns:xlink="http://www.w3.org/1999/xlink" version="1.1" id="Слой_1" x="0px" y="0px" viewBox="0 0 446.1 446.1" style="enable-background:new 0 0 446.1 446.1;" xml:space="preserve"> <style type="text/css"> .st0{opacity:0.4;} .st1{fill:none;stroke:#FFFFFF;stroke-width:0.5;stroke-linecap:round;stroke-linejoin:round;stroke-dasharray:6.0313,5.0261;} .st2{opacity:0.8;fill:#6BB6C9;} .st3{fill:none;} .st4{fill:#254E50;} .st5{fill:#F7CE9D;} .st6{fill:#F1C290;} .st7{fill:#E9B482;} .st8{fill:#FFFFFF;} .st9{fill:#CFDBDA;} .st10{fill:#E7E9E8;} .st11{fill:#2E5D63;} .st12{fill:#EC6933;} .st13{fill:#111D23;} .st14{fill:#0E9C89;} .st15{fill:#F0C18E;} .st16{fill:#E8B380;} .st17{fill:#6CB3C7;} .st18{fill:#224953;} .st19{fill:#CFDAD9;} .st20{fill:#1C8C79;} .st21{fill:#6CB4C8;} .st22{clip-path:url(#SVGID_2_);} .st23{fill-rule:evenodd;clip-rule:evenodd;fill:#B4DCC3;} .st24{fill:#224750;} .st25{fill-rule:evenodd;clip-rule:evenodd;fill:#FFFFFF;} .st26{fill-rule:evenodd;clip-rule:evenodd;fill:#CCCCCC;} .st27{fill-rule:evenodd;clip-rule:evenodd;fill:#E6E5E5;} .st28{fill:#67B8CB;} .st29{fill:#189E8C;} .st30{fill:#F19468;} .st31{fill:#F79B31;} .st32{fill:#F6BF32;} .st33{fill:#214752;} .st34{fill:#109D8B;} .st35{fill:#F3AE7B;} .st36{fill:#051F40;} .st37{fill:#EEEFF3;} .st38{fill:#F9EFE4;} .st39{fill:#595958;} .st40{fill:#3F3F3E;} .st41{fill:#E7B140;} .st42{opacity:0.3;} </style> <g> <g class="st0"> <circle class="st1" cx="223.1" cy="223.1" r="222.8"></circle> </g> <g> <circle class="st2" cx="223.1" cy="223.1" r="162.8"></circle> <circle class="st3" cx="223.1" cy="223.1" r="162.8"></circle> <g> <g> <g> <g> <path class="st4" d="M311.8,219.6c-0.8-2.3-7.9-45.2-8.4-46.3c-0.5-1.1-24.7-9.4-24.7-9.4c-1.3,1.8-4.1,7.3-4.6,7.8 c-0.5,0.5-2.9,1.9-2.9,1.9s-0.2-0.1-0.6-0.2l-2.7,46.2H311.8z"></path> </g> <g> <path class="st4" d="M267.3,219.6l-4-45.4c-0.3,0.1-0.6,0.2-0.6,0.2s-2.8-1.3-3.3-1.8c-0.5-0.5-2.6-7.8-2.5-8.6 c0,0-25.8,8.9-26.4,10c-0.5,1.1-7.5,43.3-8.2,45.6H267.3z"></path> </g> <path class="st5" d="M278.7,165c-0.5-4-0.7-10.1-0.3-14.7c0.3-2.8-9.4,3.1-11.3,3.1c-2.1,0-10.7-4.8-10.2-1.9 c0.9,4.7,0.1,9.1-0.1,12.2c1.9,0.5,2.9,6.8,2.2,7.6c0.5,1.3,1.1,2.5,1.5,3.1c2.2,3.1,4,1.9,6.6,1.9c2.5,0,5.2-0.7,7.8-3.7 C276.6,170.9,278.9,166.6,278.7,165z"></path> <path class="st5" d="M256.4,147.2c0,1.1-0.9,2-2,2l0,0c-1.1,0-1.6-0.4-1.6-4.5l-0.7-2.7c0-1.9,1.5,0.4,2.6,0.4h0.6 c1.1,0,1,0.1,1,1.2V147.2z"></path> <path class="st6" d="M277.7,147.2c0,1.1,0.9,2,2,2l0,0c1.1,0,1.6-0.4,1.6-4.5l0.7-2.7c0-1.9-1.5,0.4-2.6,0.4h-0.6 c-1.1,0-1,0.1-1,1.2V147.2z"></path> <g> <path class="st7" d="M278.6,163.8c-0.5-4.5-0.7-8.9-0.2-13.5c0.3-2.8-9.4,3.1-11.3,3.1c-2.1,0-10.7-4.8-10.2-1.9 c0.4,2,0.5,3,0.4,5l14.3,21.8c2.9-0.4,0.1,0,1.2-1.3C274.5,175.3,278.9,166.2,278.6,163.8z"></path> </g> <path class="st3" d="M268.5,171.4c0.3,0.1,0.5,0.2,0.8,0.4c0.3-0.2,0.6-0.4,0.9-0.6L268.5,171.4z"></path> <path class="st3" d="M265,171.2c0.2,0.2,0.5,0.4,0.7,0.6c0.1-0.1,0.3-0.2,0.5-0.3C265.8,171.5,265.4,171.4,265,171.2z"></path> <path class="st8" d="M272.5,219.6l5.8-34.3l0.4-15.1c-0.3,1.2,0-6.7,0-6.7c-0.3,0.2-11.6,8.3-11.9,8.5 c0.3,0.2,0.7,33.7,0.9,47.6H272.5z"></path> <path class="st8" d="M263.3,219.6h4.8c-0.1-14.9-0.3-47.9,0-48.1c-0.3-0.2-10.9-7.5-11.2-7.7c0,0,0.2,7.6-0.2,6.4l2.5,10.8 L263.3,219.6z"></path> <g> <g> <path class="st8" d="M267.7,177.1c0.6,0.1,1.1-0.2,1.3-0.8c0.1-0.6-0.2-1.1-0.8-1.3c-0.6-0.1-1.1,0.2-1.3,0.8 C266.8,176.4,267.1,177,267.7,177.1"></path> <path class="st9" d="M267.7,175.9c0.1,0,0.2,0,0.2-0.2c0-0.1,0-0.2-0.2-0.2c-0.1,0-0.2,0-0.2,0.2 C267.5,175.8,267.6,175.9,267.7,175.9"></path> <path class="st9" d="M267.6,176.5c0.1,0,0.2,0,0.2-0.1c0-0.1,0-0.2-0.2-0.2c-0.1,0-0.2,0-0.2,0.2 C267.4,176.4,267.5,176.5,267.6,176.5"></path> <path class="st9" d="M268.2,176.1c0.1,0,0.2,0,0.2-0.2c0-0.1,0-0.2-0.2-0.2c-0.1,0-0.2,0-0.2,0.2 C268.1,175.9,268.1,176,268.2,176.1"></path> <path class="st9" d="M268.1,176.6c0.1,0,0.2,0,0.2-0.2c0-0.1,0-0.2-0.2-0.2c-0.1,0-0.2,0-0.2,0.2 C267.9,176.5,268,176.6,268.1,176.6"></path> </g> <g> <path class="st8" d="M267.7,188.5c0.6,0.1,1.1-0.2,1.3-0.8c0.1-0.6-0.2-1.1-0.8-1.3c-0.6-0.1-1.1,0.2-1.3,0.8 C266.8,187.8,267.1,188.3,267.7,188.5"></path> <path class="st9" d="M267.7,187.3c0.1,0,0.2,0,0.2-0.2c0-0.1,0-0.2-0.2-0.2c-0.1,0-0.2,0-0.2,0.2 C267.5,187.1,267.6,187.2,267.7,187.3"></path> <path class="st9" d="M267.6,187.8c0.1,0,0.2,0,0.2-0.1c0-0.1,0-0.2-0.2-0.2c-0.1,0-0.2,0-0.2,0.2 C267.4,187.7,267.5,187.8,267.6,187.8"></path> <path class="st9" d="M268.2,187.4c0.1,0,0.2,0,0.2-0.2c0-0.1,0-0.2-0.2-0.2c-0.1,0-0.2,0-0.2,0.1 C268.1,187.3,268.1,187.4,268.2,187.4"></path> <path class="st9" d="M268.1,187.9c0.1,0,0.2,0,0.2-0.2c0-0.1,0-0.2-0.2-0.2c-0.1,0-0.2,0-0.2,0.2 C267.9,187.8,268,187.9,268.1,187.9"></path> </g> <g> <path class="st8" d="M267.7,199.8c0.6,0.1,1.1-0.2,1.3-0.8c0.1-0.6-0.2-1.1-0.8-1.3c-0.6-0.1-1.1,0.2-1.3,0.8 C266.8,199.1,267.1,199.6,267.7,199.8"></path> <path class="st9" d="M267.7,198.6c0.1,0,0.2,0,0.2-0.2c0-0.1,0-0.2-0.2-0.2c-0.1,0-0.2,0-0.2,0.2 C267.5,198.5,267.6,198.6,267.7,198.6"></path> <path class="st9" d="M267.6,199.1c0.1,0,0.2,0,0.2-0.1c0-0.1,0-0.2-0.2-0.2c-0.1,0-0.2,0-0.2,0.2 C267.4,199,267.5,199.1,267.6,199.1"></path> <path class="st9" d="M268.2,198.7c0.1,0,0.2,0,0.2-0.2c0-0.1,0-0.2-0.2-0.2c-0.1,0-0.2,0-0.2,0.2 C268.1,198.6,268.1,198.7,268.2,198.7"></path> <path class="st9" d="M268.1,199.3c0.1,0,0.2,0,0.2-0.2c0-0.1,0-0.2-0.2-0.2c-0.1,0-0.2,0-0.2,0.2 C267.9,199.1,268,199.2,268.1,199.3"></path> </g> </g> <g> <polygon class="st10" points="256.9,163.7 264.1,178 267.8,171.3 "></polygon> <polygon class="st10" points="278.7,163.5 271.7,177.8 267.9,171.3 "></polygon> </g> <g> <path class="st5" d="M255.4,131.5c-0.6,2.4-0.9,8.1-0.9,10.8c0,11.7,4.5,21.1,12.8,21.2l0.2-31.9H255.4z"></path> <path class="st6" d="M279.4,131.5h-12.5l0.4,31.9c0,0,0,0,0.1,0c8.9,0,12.7-9.7,12.8-21.4 C280.2,140.8,279.9,133.9,279.4,131.5z"></path> </g> <g> <polygon class="st11" points="249.8,187 260.4,219.6 264.3,219.6 256.9,163.4 252.7,166.4 248.3,178.7 255.4,184.2 "></polygon> </g> <g> <polygon class="st11" points="275.7,219.6 285.6,186.9 279.9,184.1 287,178.7 282.6,166.4 278.7,163.4 272.1,219.6 "></polygon> </g> </g> <polygon class="st12" points="264,219.8 271.5,219.8 272,217.5 268.9,181.9 271,177.1 268.2,171.1 267.7,171.1 264.5,177.2 266.8,181.4 263.5,217.4 "></polygon> <g> <path class="st13" d="M252.8,133.8c0,0.3,0.5,3.6,1,7.8c0.1,0.9,1.3,2.6,1.6,2.9c-0.1-1.2,1.5-7.7,1.5-8.2 c-0.2-2,0.5-3.2,2.5-3.6c1.4-0.3,5.6,1.3,7,1.3c3.3,0,3.8-1.5,7.1-1.5c0.3,0,0.6,0,0.9,0c1.4,0.1,2.3,1,2.5,2.4 c0.1,0.5,1.8,8.7,1.6,9.8c0.3-0.6,1.6-1.9,1.7-2.6c0.4-1.5,1.6-15.3-0.9-16c-3-0.3-8-3.3-9.5-3.2 C253.2,123.5,252.8,128.6,252.8,133.8z"></path> </g> </g> <g> <g> <g> <path class="st14" d="M222.3,219.8c-0.8-2.3-7.8-44.5-8.3-45.5c-0.5-1.1-24.3-9.2-24.3-9.2c-1.3,1.7-4,7.2-4.5,7.7 c-0.5,0.5-2.9,1.9-2.9,1.9s-0.2-0.1-0.5-0.2l-2.6,45.4H222.3z"></path> </g> <g> <path class="st14" d="M178.5,219.8l-3.9-44.7c-0.3,0.1-0.5,0.2-0.5,0.2s-2.7-1.3-3.2-1.7c-0.5-0.5-2.6-7.6-2.5-8.4 c0,0-25.4,8.8-25.9,9.8c-0.5,1.1-7.3,42.5-8.1,44.8H178.5z"></path> </g> <path class="st5" d="M189.6,166.1c-0.5-3.9-0.7-9.9-0.3-14.4c0.3-2.7-9.3,3.1-11.1,3.1c-2,0-10.5-4.7-10-1.9 c0.9,4.6,0.1,8.9-0.1,12c1.8,0.4,2.8,6.7,2.1,7.5c0.5,1.3,1,2.5,1.5,3c2.1,3,3.9,1.9,6.5,1.9c2.5,0,5.1-0.7,7.7-3.6 C187.6,171.9,189.8,167.7,189.6,166.1z"></path> <path class="st5" d="M167.8,148.6c0,1.1-0.9,1.9-1.9,1.9l0,0c-1.1,0-1.6-0.4-1.6-4.5l-0.7-2.6c0-1.8,1.5,0.4,2.6,0.4h0.6 c1.1,0,1,0.1,1,1.1V148.6z"></path> <path class="st15" d="M188.7,148.6c0,1.1,0.9,1.9,1.9,1.9l0,0c1.1,0,1.6-0.4,1.6-4.5l0.7-2.6c0-1.8-1.5,0.4-2.6,0.4h-0.6 c-1.1,0-1,0.1-1,1.1V148.6z"></path> <g> <path class="st16" d="M189.6,164.9c-0.5-4.4-0.7-8.8-0.2-13.3c0.3-2.7-9.3,3.1-11.1,3.1c-2,0-10.5-4.7-10-1.9 c0.4,1.9,0.7,4.3,0.7,6.3l14.7,20c2.8-0.4-0.8,0.1,0.3-1.1C185.5,176.2,189.9,167.3,189.6,164.9z"></path> </g> <path class="st3" d="M179.6,172.4c0.3,0.1,0.5,0.2,0.8,0.3c0.3-0.2,0.6-0.4,0.9-0.6L179.6,172.4z"></path> <path class="st3" d="M176.2,172.2c0.2,0.2,0.5,0.4,0.7,0.6c0.1-0.1,0.3-0.2,0.5-0.3C177,172.5,176.6,172.4,176.2,172.2z"></path> <path class="st17" d="M183.6,219.8l5.7-33.8l0.4-14.8c-0.3,1.2,0-6.6,0-6.6c-0.3,0.2-11.4,8.2-11.7,8.4 c0.3,0.2,0.7,33.2,0.9,46.8H183.6z"></path> <path class="st17" d="M174.5,219.8h4.8c-0.1-14.6-0.3-47.1,0-47.3c-0.3-0.2-10.7-7.8-11-8c0,0,0.1,7.8-0.2,6.7l2.5,10.6 L174.5,219.8z"></path> <path class="st18" d="M180.1,219.8v-47.7c0,0-0.4,0.1-1,0.1c-0.4,0-1-0.1-1-0.1v47.7H180.1z"></path> <g> <g> <path class="st8" d="M178.9,178c0.6,0.1,1.1-0.2,1.2-0.8c0.1-0.6-0.2-1.1-0.8-1.2c-0.6-0.1-1.1,0.2-1.2,0.8 C177.9,177.3,178.3,177.9,178.9,178"></path> <path class="st19" d="M178.9,176.9c0.1,0,0.2,0,0.2-0.1c0-0.1,0-0.2-0.1-0.2c-0.1,0-0.2,0-0.2,0.1 C178.7,176.7,178.8,176.8,178.9,176.9"></path> <path class="st19" d="M178.8,177.4c0.1,0,0.2,0,0.2-0.1c0-0.1,0-0.2-0.1-0.2c-0.1,0-0.2,0-0.2,0.1 C178.6,177.3,178.6,177.4,178.8,177.4"></path> <path class="st19" d="M179.4,177c0.1,0,0.2,0,0.2-0.1c0-0.1,0-0.2-0.1-0.2c-0.1,0-0.2,0-0.2,0.1 C179.2,176.8,179.3,176.9,179.4,177"></path> <path class="st19" d="M179.3,177.5c0.1,0,0.2,0,0.2-0.1c0-0.1,0-0.2-0.1-0.2c-0.1,0-0.2,0-0.2,0.1 C179.1,177.4,179.2,177.5,179.3,177.5"></path> </g> <g> <path class="st8" d="M178.9,189.1c0.6,0.1,1.1-0.2,1.2-0.8c0.1-0.6-0.2-1.1-0.8-1.2c-0.6-0.1-1.1,0.2-1.2,0.8 C177.9,188.5,178.3,189,178.9,189.1"></path> <path class="st19" d="M178.9,188c0.1,0,0.2,0,0.2-0.2c0-0.1,0-0.2-0.1-0.2c-0.1,0-0.2,0-0.2,0.2 C178.7,187.9,178.8,188,178.9,188"></path> <path class="st19" d="M178.8,188.5c0.1,0,0.2,0,0.2-0.1c0-0.1,0-0.2-0.1-0.2c-0.1,0-0.2,0-0.2,0.1 C178.6,188.4,178.6,188.5,178.8,188.5"></path> <path class="st19" d="M179.4,188.1c0.1,0,0.2,0,0.2-0.2c0-0.1,0-0.2-0.1-0.2c-0.1,0-0.2,0-0.2,0.1 C179.2,188,179.3,188.1,179.4,188.1"></path> <path class="st19" d="M179.3,188.6c0.1,0,0.2,0,0.2-0.1c0-0.1,0-0.2-0.1-0.2c-0.1,0-0.2,0-0.2,0.1 C179.1,188.5,179.2,188.6,179.3,188.6"></path> </g> <g> <path class="st8" d="M178.9,200.3c0.6,0.1,1.1-0.2,1.2-0.8c0.1-0.6-0.2-1.1-0.8-1.2c-0.6-0.1-1.1,0.2-1.2,0.8 C177.9,199.6,178.3,200.2,178.9,200.3"></path> <path class="st19" d="M178.9,199.1c0.1,0,0.2,0,0.2-0.1c0-0.1,0-0.2-0.1-0.2c-0.1,0-0.2,0-0.2,0.1 C178.7,199,178.8,199.1,178.9,199.1"></path> <path class="st19" d="M178.8,199.7c0.1,0,0.2,0,0.2-0.1c0-0.1,0-0.2-0.1-0.2c-0.1,0-0.2,0-0.2,0.1 C178.6,199.5,178.6,199.6,178.8,199.7"></path> <path class="st19" d="M179.4,199.2c0.1,0,0.2,0,0.2-0.1c0-0.1,0-0.2-0.1-0.2c-0.1,0-0.2,0-0.2,0.1 C179.2,199.1,179.3,199.2,179.4,199.2"></path> <path class="st19" d="M179.3,199.8c0.1,0,0.2,0,0.2-0.1c0-0.1,0-0.2-0.1-0.2c-0.1,0-0.2,0-0.2,0.1 C179.1,199.6,179.2,199.8,179.3,199.8"></path> </g> </g> <g> <polygon class="st18" points="168.3,164.5 174.1,175.8 179,172.3 "></polygon> <polygon class="st18" points="189.7,164.6 184,175.8 179.1,172.3 "></polygon> </g> <g> <path class="st5" d="M166.7,133.2c-0.6,2.3-0.9,7.9-0.9,10.6c0,11.5,4.4,20.7,12.6,20.8l0.2-31.4H166.7z"></path> <path class="st15" d="M190.3,133.2H178l0.4,31.4c0,0,0,0,0.1,0c8.7,0,12.7-9.3,12.7-20.8C191.2,141.2,190.9,135.6,190.3,133.2 z"></path> </g> <g> <polygon class="st20" points="161.2,187.7 171.7,219.8 175.5,219.8 168.2,164.6 164.1,167.5 159.8,179.6 166.8,184.9 "></polygon> </g> <g> <polygon class="st20" points="186.7,219.8 196.4,187.7 190.9,184.9 197.9,179.5 193.5,167.4 189.7,164.6 183.2,219.8 "></polygon> </g> </g> <g> <path class="st13" d="M164.4,135.7c0,0.3,0.5,3.6,0.9,7.7c0.1,0.9,1.3,2.5,1.6,2.8c-0.1-1.2,1.5-7.6,1.5-8 c-0.2-2,0.5-3.2,2.5-3.6c1.4-0.3,5.5,1.3,6.9,1.3c3.2,0,3.8-1.5,7-1.4c0.3,0,0.6,0,0.9,0c1.4,0.1,2.3,1,2.4,2.4 c0.1,0.5,1.8,8.6,1.6,9.7c0.3-0.6,1.4-1.7,1.6-2.4c0.4-1.5,1.7-15.2-0.8-15.9c-2.9-0.3-7.8-3.2-9.3-3.2 C164.8,125.5,164.4,130.6,164.4,135.7z"></path> </g> </g> <g> <g> <g> <path class="st21" d="M308.9,281.3c-1.5-4.4-15.2-87.2-16.3-89.2c-1-2.1-47.6-18.1-47.6-18.1c-2.6,3.4-7.8,14.1-8.8,15.1 c-1,1-5.6,3.6-5.6,3.6s-0.4-0.1-1.1-0.4l-5.2,89H308.9z"></path> </g> <g> <path class="st21" d="M223.1,281.3l-7.7-87.6c-0.7,0.2-1.1,0.4-1.1,0.4s-5.4-2.5-6.3-3.4c-1-1-5.1-15-4.8-16.5 c0,0-49.8,17.2-50.8,19.2c-1,2.1-14.4,83.4-15.8,87.8H223.1z"></path> </g> <path class="st5" d="M245,176c-1-7.7-1.4-19.5-0.5-28.3c0.6-5.3-18.2,6.1-21.7,6.1c-4,0-20.7-9.2-19.6-3.6 c1.8,9,0.2,17.5-0.2,23.6c3.6,0.9,5.5,13.2,4.2,14.6c1,2.6,2,4.8,2.9,6c4.2,5.9,7.7,3.7,12.7,3.7c4.9,0,10.1-1.4,15-7 C241,187.3,245.4,179.2,245,176z"></path> <path class="st5" d="M202.1,141.8c0,2.1-1.7,3.8-3.8,3.8l0,0c-2.1,0-3.1-0.7-3.1-8.7l-1.3-5.2c0-3.6,2.9,0.9,5,0.9h1.1 c2.1,0,2,0.1,2,2.2V141.8z"></path> <path class="st6" d="M243.1,141.8c0,2.1,1.7,3.8,3.8,3.8l0,0c2.1,0,3.1-0.7,3.1-8.7l1.3-5.2c0-3.6-2.9,0.9-5,0.9h-1.1 c-2.1,0-2,0.1-2,2.2V141.8z"></path> <g> <path class="st7" d="M244.9,173.7c-1-8.6-1.3-17.2-0.4-26c0.6-5.3-18.2,6.1-21.7,6.1c-4,0-20.7-9.2-19.6-3.6 c0.8,3.8,1.5,8.5,1.3,12.4l28.7,39.2c5.5-0.7-1.6,0.2,0.5-2.2C237,195.8,245.4,178.4,244.9,173.7z"></path> </g> <path class="st3" d="M225.3,188.4c0.6,0.2,1,0.4,1.5,0.7c0.6-0.3,1.1-0.7,1.7-1.1L225.3,188.4z"></path> <path class="st3" d="M218.6,188.1c0.4,0.4,0.9,0.7,1.3,1.1c0.3-0.2,0.6-0.4,0.9-0.5C220.2,188.5,219.4,188.3,218.6,188.1z"></path> <path class="st21" d="M233.2,281.3l11.1-66.2l0.8-29c-0.7,2.3,0-12.9,0-12.9c-0.5,0.4-22.3,16.1-22.9,16.4 c0.7,0.4,1.3,65,1.8,91.7H233.2z"></path> <path class="st21" d="M215.4,281.3h9.3c-0.3-28.7-0.7-92.3,0-92.7c-0.6-0.3-21-15.2-21.6-15.6c0,0,0.3,15.4-0.4,13.1l4.9,20.8 L215.4,281.3z"></path> <path class="st18" d="M226.3,281.3v-93.5c0,0-0.9,0.3-1.9,0.3c-0.9,0-1.9-0.3-1.9-0.3v93.5H226.3z"></path> <g> <g> <path class="st8" d="M223.9,199.4c1.1,0.2,2.2-0.4,2.4-1.5c0.2-1.1-0.4-2.2-1.5-2.4c-1.1-0.2-2.2,0.4-2.4,1.5 C222.1,198.1,222.8,199.2,223.9,199.4"></path> <path class="st9" d="M223.9,197.1c0.2,0,0.4-0.1,0.5-0.3c0-0.2-0.1-0.4-0.3-0.5c-0.2,0-0.4,0.1-0.5,0.3 C223.5,196.9,223.7,197.1,223.9,197.1"></path> <path class="st9" d="M223.6,198.2c0.2,0,0.4-0.1,0.5-0.3c0-0.2-0.1-0.4-0.3-0.5c-0.2-0.1-0.4,0.1-0.5,0.3 C223.3,197.9,223.4,198.1,223.6,198.2"></path> <path class="st9" d="M224.9,197.4c0.2,0,0.4-0.1,0.5-0.3c0-0.2-0.1-0.4-0.3-0.5c-0.2,0-0.4,0.1-0.5,0.3 C224.5,197.1,224.7,197.3,224.9,197.4"></path> <path class="st9" d="M224.6,198.4c0.2,0,0.4-0.1,0.5-0.3c0-0.2-0.1-0.4-0.3-0.5c-0.2,0-0.4,0.1-0.5,0.3 C224.3,198.2,224.4,198.4,224.6,198.4"></path> </g> <g> <path class="st8" d="M223.9,221.2c1.1,0.2,2.2-0.4,2.4-1.5c0.2-1.1-0.4-2.2-1.5-2.4c-1.1-0.2-2.2,0.4-2.4,1.5 C222.1,219.9,222.8,221,223.9,221.2"></path> <path class="st9" d="M223.9,219c0.2,0,0.4-0.1,0.5-0.3c0-0.2-0.1-0.4-0.3-0.5c-0.2,0-0.4,0.1-0.5,0.3 C223.5,218.7,223.7,218.9,223.9,219"></path> <path class="st9" d="M223.6,220c0.2,0,0.4-0.1,0.5-0.3c0-0.2-0.1-0.4-0.3-0.5c-0.2,0-0.4,0.1-0.5,0.3 C223.3,219.8,223.4,220,223.6,220"></path> <path class="st9" d="M224.9,219.2c0.2,0,0.4-0.1,0.5-0.3c0-0.2-0.1-0.4-0.3-0.5c-0.2,0-0.4,0.1-0.5,0.3 C224.5,218.9,224.7,219.1,224.9,219.2"></path> <path class="st9" d="M224.6,220.2c0.2,0,0.4-0.1,0.5-0.3c0-0.2-0.1-0.4-0.3-0.5c-0.2,0-0.4,0.1-0.5,0.3 C224.3,220,224.4,220.2,224.6,220.2"></path> </g> <g> <path class="st8" d="M223.9,243.1c1.1,0.2,2.2-0.4,2.4-1.5c0.2-1.1-0.4-2.2-1.5-2.4c-1.1-0.2-2.2,0.4-2.4,1.5 C222.1,241.7,222.8,242.8,223.9,243.1"></path> <path class="st9" d="M223.9,240.8c0.2,0,0.4-0.1,0.5-0.3c0-0.2-0.1-0.4-0.3-0.5c-0.2,0-0.4,0.1-0.5,0.3 C223.5,240.5,223.7,240.7,223.9,240.8"></path> <path class="st9" d="M223.6,241.8c0.2,0,0.4-0.1,0.5-0.3c0-0.2-0.1-0.4-0.3-0.5c-0.2,0-0.4,0.1-0.5,0.3 C223.3,241.6,223.4,241.8,223.6,241.8"></path> <path class="st9" d="M224.9,241c0.2,0,0.4-0.1,0.5-0.3c0-0.2-0.1-0.4-0.3-0.5c-0.2,0-0.4,0.1-0.5,0.3 C224.5,240.8,224.7,241,224.9,241"></path> <path class="st9" d="M224.6,242.1c0.2,0,0.4-0.1,0.5-0.3c0-0.2-0.1-0.4-0.3-0.5c-0.2,0-0.4,0.1-0.5,0.3 C224.3,241.8,224.4,242,224.6,242.1"></path> </g> </g> <g> <polygon class="st18" points="203.1,172.9 214.5,195 224.1,188.3 "></polygon> <polygon class="st18" points="245,173.2 234,195 224.3,188.3 "></polygon> </g> <g> <path class="st5" d="M200.1,111.6c-1.1,4.6-1.7,15.6-1.7,20.8c0,22.5,8.6,40.7,24.7,40.8l0.4-61.6H200.1z"></path> <path class="st6" d="M246.3,111.6h-24.1l0.9,61.6c0,0,0.1,0,0.1,0c17.1,0,24.8-18.3,24.8-40.8 C248.1,127.1,247.4,116.2,246.3,111.6z"></path> </g> </g> <g> <path class="st13" d="M195.5,116.3c0,0.6,1,7,1.9,15c0.2,1.8,2.5,5,3.1,5.5c-0.3-2.3,3-14.9,2.9-15.7c-0.5-3.9,0.9-6.2,4.8-7 c2.7-0.6,10.8,2.6,13.6,2.6c6.3,0,7.4-3,13.7-2.8c0.6,0,1.1,0,1.7,0c2.7,0.2,4.4,1.9,4.7,4.6c0.1,1,3.5,16.8,3.1,18.9 c0.5-1.2,2.8-3.3,3.1-4.6c0.7-2.8,3.4-29.9-1.5-31.3c-5.7-0.5-15.3-6.3-18.3-6.2C196.3,96.5,195.5,106.5,195.5,116.3z"></path> </g> </g> </g> <g> <defs> <circle id="SVGID_1_" cx="223.1" cy="223.1" r="153.9"></circle> </defs> <clipPath id="SVGID_2_"> <use xlink:href="#SVGID_1_" style="overflow:visible;"></use> </clipPath> <g class="st22"> <g> <path class="st23" d="M134.4,212.3h177.3c5,0,9.1,4.1,9.1,9.1v96.5c0,5-4.1,9.1-9.1,9.1H134.4c-5,0-9.1-4.1-9.1-9.1v-96.5 C125.3,216.4,129.4,212.3,134.4,212.3z"></path> <path class="st24" d="M311.7,220.8c0.3,0,0.6,0.3,0.6,0.6v81.1H133.8v-81.1c0-0.3,0.3-0.6,0.6-0.6H311.7 M311.7,212.3H134.4 c-5,0-9.1,4.1-9.1,9.1V311h195.5v-89.6C320.8,216.4,316.7,212.3,311.7,212.3L311.7,212.3z"></path> <g> <polygon class="st25" points="204.5,318.9 242.1,318.9 249.1,350.8 197.1,350.8 "></polygon> <polygon class="st26" points="202.6,326.9 243.9,326.9 246.3,338 "></polygon> </g> <path class="st27" d="M264.4,352.8c0,1.5-1.2,2.7-2.7,2.7h-77.4c-1.5,0-2.7-1.2-2.7-2.7l0,0c0-1.5,1.2-2.7,2.7-2.7h77.4 C263.2,350.2,264.4,351.3,264.4,352.8L264.4,352.8z"></path> <path class="st25" d="M125.3,309.4v8.5c0,5,4.1,9.1,9.1,9.1h177.3c5,0,9.1-4.1,9.1-9.1v-8.5H125.3z"></path> </g> <g> <rect x="182.1" y="239.1" class="st28" width="72.7" height="20.4"></rect> <rect x="182.1" y="223.7" class="st28" width="33.3" height="11.1"></rect> <rect x="136.5" y="223.7" class="st29" width="40.1" height="75.9"></rect> <rect x="221.4" y="223.7" class="st28" width="33.3" height="11.1"></rect> <rect x="260.6" y="223.7" class="st28" width="49" height="11.1"></rect> <rect x="182.1" y="262.9" class="st29" width="72.7" height="20.8"></rect> <rect x="182.6" y="286.9" class="st28" width="127.1" height="12.7"></rect> <rect x="260.5" y="237.9" class="st29" width="49.1" height="45.8"></rect> </g> <g> <path class="st30" d="M151.8,384.4c12.2-24.1,28.4-55.7,28.4-55.7l1.9-2.7l-9.4-11.8L147,338.2l-1.6-1.6l-25.9,47.9H151.8z"></path> <g> <path class="st12" d="M270,332.6c0,2.5-2,4.6-4.6,4.6h-92.5c-2.5,0-4.6-2-4.6-4.6V213.4c0-2.5,2-4.6,4.6-4.6h92.5 c2.5,0,4.6,2,4.6,4.6V332.6z"></path> <rect x="176.5" y="217" class="st8" width="85.2" height="112"></rect> <path class="st31" d="M238.9,222.9v-4.6c0-1.5-1.2-2.7-2.7-2.7h-34.1c-1.5,0-2.7,1.2-2.7,2.7v4.6H238.9z"></path> <path class="st32" d="M238.9,221v-4.6c0-1.5-1.2-2.7-2.7-2.7h-34.1c-1.5,0-2.7,1.2-2.7,2.7v4.6H238.9z"></path> <ellipse class="st32" cx="219.1" cy="213.4" rx="6.4" ry="6.4"></ellipse> <ellipse class="st8" cx="219.1" cy="213.4" rx="2.7" ry="2.7"></ellipse> <g> <rect x="197.2" y="246.9" class="st33" width="53.1" height="2.8"></rect> <rect x="197.2" y="258.4" class="st33" width="53.1" height="2.8"></rect> <rect x="197.2" y="269.9" class="st33" width="53.1" height="2.8"></rect> <rect x="197.2" y="281.3" class="st33" width="53.1" height="2.8"></rect> </g> <g> <path class="st34" d="M187.8,255.5c-0.3,0-0.7-0.1-0.9-0.4l-2.1-2.2c-0.5-0.5-0.5-1.3,0-1.8c0.5-0.5,1.3-0.5,1.8,0l1.1,1.2 l3.7-4.5c0.4-0.5,1.2-0.6,1.8-0.2c0.5,0.4,0.6,1.2,0.2,1.8l-4.6,5.6C188.6,255.3,188.2,255.5,187.8,255.5 C187.8,255.5,187.8,255.5,187.8,255.5L187.8,255.5z"></path> </g> <g> <path class="st34" d="M187.8,266.5c-0.3,0-0.7-0.1-0.9-0.4l-2.1-2.2c-0.5-0.5-0.5-1.3,0-1.8c0.5-0.5,1.3-0.5,1.8,0l1.1,1.2 l3.7-4.5c0.4-0.5,1.3-0.6,1.8-0.2c0.5,0.4,0.6,1.3,0.2,1.8l-4.6,5.6C188.6,266.3,188.2,266.5,187.8,266.5 C187.8,266.5,187.8,266.5,187.8,266.5L187.8,266.5z"></path> </g> <g> <path class="st34" d="M187.8,277.5c-0.3,0-0.7-0.1-0.9-0.4l-2.1-2.2c-0.5-0.5-0.5-1.3,0-1.8c0.5-0.5,1.3-0.5,1.8,0l1.1,1.2 l3.7-4.5c0.4-0.5,1.2-0.6,1.8-0.2c0.5,0.4,0.6,1.3,0.2,1.8l-4.6,5.6C188.6,277.4,188.2,277.5,187.8,277.5 C187.8,277.5,187.8,277.5,187.8,277.5L187.8,277.5z"></path> </g> </g> <g> <g> <path class="st30" d="M245.6,317.8l-12.1-3c-6-0.9-10.4,2.8-8.7,6.3c0,0,15.5,4.8,23.4,10.6c11.9,8.8,18.8,9.9,19.3,9.9 l10.8,15.7h29l-20.9-31c-0.6-8.4-0.9-13.4-5.6-19.4l-13.9-20.1c-1.4-2.2-4.4-2.8-6.6-1.4c-0.6,0.4-1.1,0.9-1.5,1.5 c-1.5-0.8-3.4-0.8-4.9,0.2c-1.2,0.8-1.9,2-2.1,3.4c-1.3-0.3-2.7-0.2-3.9,0.6c-1,0.7-4.8,3.6-5.1,4.7l-12.3-18.5 c-1.4-2.2-4.4-2.8-6.6-1.4c-2.2,1.4-2.8,4.4-1.4,6.6L245.6,317.8z"></path> <g> <path class="st35" d="M226.2,321.6l1.7-3.2c0,0,4,0,5,1.8c1.1,1.7-0.7,3.6-0.7,3.6L226.2,321.6z"></path> <path class="st35" d="M224.4,276.7c-2.6,2-1.7,4.1,0.3,6.3c2,2.1,4,1,4.6,0.5c1.5-1.3,1-3,0.1-4.8 C228.6,277,226.8,274.9,224.4,276.7z"></path> </g> </g> <g> <g> <polygon class="st36" points="334.8,384.4 301,332.8 284,344 310.5,384.4 "></polygon> <polygon class="st18" points="311.7,384.4 284.8,343.4 267,355.1 286.2,384.4 "></polygon> <rect x="264.8" y="337.2" transform="matrix(0.8362 -0.5484 0.5484 0.8362 -140.754 210.4412)" class="st37" width="34.3" height="7.3"></rect> </g> <g> <path class="st38" d="M293.9,345.3c1.2,1.9,3.7,2.4,5.6,1.2c1.9-1.2,2.4-3.7,1.2-5.6c-1.2-1.9-3.7-2.4-5.6-1.2 C293.2,340.9,292.7,343.4,293.9,345.3"></path> <path class="st36" d="M297.1,342.1c0.2,0.3,0.7,0.4,1.1,0.2c0.4-0.2,0.5-0.7,0.2-1.1c-0.2-0.4-0.7-0.5-1.1-0.2 C297,341.3,296.9,341.8,297.1,342.1"></path> <path class="st36" d="M295.3,343.3c0.2,0.4,0.7,0.4,1.1,0.2c0.4-0.2,0.4-0.7,0.2-1.1c-0.2-0.4-0.7-0.5-1.1-0.2 C295.2,342.5,295.1,342.9,295.3,343.3"></path> <path class="st36" d="M298.2,343.8c0.2,0.4,0.7,0.4,1.1,0.2c0.4-0.2,0.5-0.7,0.2-1.1c-0.2-0.4-0.7-0.5-1.1-0.2 C298.1,343,298,343.5,298.2,343.8"></path> <path class="st36" d="M296.4,345c0.2,0.4,0.7,0.4,1.1,0.2c0.4-0.2,0.5-0.7,0.2-1.1c-0.2-0.4-0.7-0.4-1.1-0.2 C296.3,344.2,296.2,344.6,296.4,345"></path> </g> </g> </g> <g> <path class="st30" d="M153.5,350.7l-11.1-8.2l16.2-31.3l5.2-32.3c0,0,11.9-8.2,6.5,20.2c0,0,5.3,14.3-8.4,28.3L153.5,350.7z"></path> <path class="st35" d="M162.3,288c4.3,0.2,4.5-7.4,4.5-7.4h-3.4L162.3,288z"></path> </g> <g> <g> <polygon class="st36" points="134.5,384.4 156.1,344.9 138.3,335.1 111.3,384.4 "></polygon> <polygon class="st18" points="157.7,384.4 174,354.6 155.2,344.4 133.3,384.4 "></polygon> <rect x="154.3" y="324.5" transform="matrix(0.4798 -0.8774 0.8774 0.4798 -217.5777 316.2776)" class="st37" width="7.3" height="34.3"></rect> </g> <g> <path class="st38" d="M146.3,347c-1.1,2-3.5,2.7-5.5,1.6c-2-1.1-2.7-3.5-1.6-5.5c1.1-2,3.5-2.7,5.5-1.6 C146.6,342.6,147.4,345.1,146.3,347"></path> <path class="st36" d="M142.9,344.1c-0.2,0.4-0.7,0.5-1,0.3c-0.4-0.2-0.5-0.7-0.3-1c0.2-0.4,0.7-0.5,1-0.3 C142.9,343.3,143.1,343.7,142.9,344.1"></path> <path class="st36" d="M144.8,345.1c-0.2,0.4-0.7,0.5-1,0.3c-0.4-0.2-0.5-0.7-0.3-1c0.2-0.4,0.7-0.5,1-0.3 C144.8,344.3,145,344.7,144.8,345.1"></path> <path class="st36" d="M141.9,345.9c-0.2,0.4-0.7,0.5-1,0.3c-0.4-0.2-0.5-0.7-0.3-1c0.2-0.4,0.7-0.5,1-0.3 C142,345,142.1,345.5,141.9,345.9"></path> <path class="st36" d="M143.8,346.9c-0.2,0.4-0.7,0.5-1,0.3c-0.4-0.2-0.5-0.7-0.3-1c0.2-0.4,0.7-0.5,1-0.3 C143.9,346.1,144,346.5,143.8,346.9"></path> </g> </g> </g> </g> </g> <g> <path class="st39" d="M165.6,113.1v6.8c-0.8,0.2-1.3,0.3-1.3,0.3l-0.9,3.2l-11.8-1.4L165.6,113.1z M173.1,108.3l-6.8,4.4v7 c4.1-0.9,14.4-2.4,26.7,0.6l0.7,2.3l13.3-9.1L173.1,108.3z"></path> <path class="st40" d="M163.4,123.4l0.9-3.2c0,0,0.4-0.1,1.3-0.3v3.8v0v3.8c-0.7,0.2-1.1,0.7-1.1,1.4c0,0.7,0.4,1.2,1,1.4 c0.1,0,0.1,0,0.2,0.1l0,0.1l-0.4,2.1c-0.3,0.1-0.5,0.1-0.8,0.2c0,0-0.1,0-0.1,0c-1.2,0.3-2.4,0.7-3.6,1.1c-0.1,0-0.2,0.1-0.4,0.1 L163.4,123.4z M166.3,119.7v3.3v0.7v3.7c0.3,0.1,0.5,0.2,0.7,0.4c0.2,0.2,0.3,0.4,0.4,0.7c0,0.1,0.1,0.3,0.1,0.4 c0,0.7-0.4,1.2-1.1,1.4l0.6,1.9c9.8-1.8,20.5-0.2,26.1,0.9c0.2,0,0.5,0.1,0.7,0.1c1.4,0.3,2.4,0.5,2.9,0.7 c0.2,0.1,0.3,0.1,0.3,0.1l-3.3-11.4l-0.7-2.3C180.7,117.4,170.4,118.9,166.3,119.7z"></path> <path class="st41" d="M165.7,130.5l0-0.1c-0.1,0-0.1,0-0.2-0.1c-0.6-0.2-1-0.7-1-1.4c0-0.7,0.5-1.3,1.1-1.4v-3.8v0v-3.8v-6.8 v-0.4c0-0.1,0-0.2,0.1-0.2c0.2-0.1,0.5-0.2,0.9-0.1l-0.4,0.2v0v7v3.3v0.7v3.7c0.3,0.1,0.5,0.2,0.7,0.4c0.2,0.2,0.3,0.4,0.4,0.7 c0,0.1,0.1,0.3,0.1,0.4c0,0.7-0.4,1.2-1.1,1.4l0.6,1.9l1.3,4.2l-3.7,0.8l0.8-4.6L165.7,130.5z"></path> <g class="st42"> <path class="st40" d="M193.2,119.7c-4.9-6.7-13.4-9.4-21.3-10.6l1.3-0.8l33.8,5.3l-13.3,9.1l-0.2-0.7 C194,121.3,193.5,120.3,193.2,119.7z"></path> <path class="st40" d="M160.7,134.3c0-0.1,0.1-0.3,0.1-0.4c1.2-0.4,2.4-0.8,3.6-1.1c0,0,0.1,0,0.1,0c0.3-0.1,0.5-0.1,0.8-0.2 l-0.3,1.6c-1.4,0.1-2.9,0.2-4.3,0.3C160.7,134.4,160.7,134.3,160.7,134.3z"></path> <path class="st40" d="M193,120.3l0.7,2.3l1.5,5.2c-8.7-4.9-18.7-7.3-28.9-6.9v-1.3C170.4,118.9,180.7,117.4,193,120.3z"></path> <path class="st40" d="M164.4,120.2c0,0,0.4-0.1,1.3-0.3v1.2c-0.5,0-1,0.1-1.5,0.1L164.4,120.2z"></path> <path class="st40" d="M167.4,128.5c0,0.1,0.1,0.3,0.1,0.4c0,0.6-0.4,1.1-0.9,1.3c0.1-0.8,0.2-1.6,0.5-2.3 C167.2,128.1,167.3,128.3,167.4,128.5z"></path> <path class="st40" d="M166.5,130.8l0.4,1.4l1.3,4.2l-1,0.2C166.7,134.5,166.4,132.6,166.5,130.8z"></path> </g> </g> <g> <path class="st39" d="M255.3,110.9v6.8c-0.8,0.2-1.3,0.3-1.3,0.3l-0.9,3.2l-11.8-1.4L255.3,110.9z M262.9,106.1l-6.8,4.4v7 c4.1-0.9,14.4-2.4,26.7,0.6l0.7,2.3l13.3-9.1L262.9,106.1z"></path> <path class="st40" d="M253.2,121.2l0.9-3.2c0,0,0.4-0.1,1.3-0.3v3.8v0v3.8c-0.7,0.2-1.1,0.7-1.1,1.4c0,0.7,0.4,1.2,1,1.4 c0.1,0,0.1,0,0.2,0.1l0,0.1l-0.4,2.1c-0.3,0.1-0.5,0.1-0.8,0.2c0,0-0.1,0-0.1,0c-1.2,0.3-2.4,0.7-3.6,1.1c-0.1,0-0.2,0.1-0.4,0.1 L253.2,121.2z M256,117.5v3.3v0.7v3.7c0.3,0.1,0.5,0.2,0.7,0.4c0.2,0.2,0.3,0.4,0.4,0.7c0,0.1,0.1,0.3,0.1,0.4 c0,0.7-0.4,1.2-1.1,1.4l0.6,1.9c9.8-1.8,20.5-0.2,26.1,0.9c0.2,0,0.5,0.1,0.7,0.1c1.4,0.3,2.4,0.5,2.9,0.7 c0.2,0.1,0.3,0.1,0.3,0.1l-3.3-11.4l-0.7-2.3C270.4,115.1,260.1,116.6,256,117.5z"></path> <path class="st41" d="M255.4,128.2l0-0.1c-0.1,0-0.1,0-0.2-0.1c-0.6-0.2-1-0.7-1-1.4c0-0.7,0.5-1.3,1.1-1.4v-3.8v0v-3.8v-6.8 v-0.4c0-0.1,0-0.2,0.1-0.2c0.2-0.1,0.5-0.2,0.9-0.1l-0.4,0.2v0v7v3.3v0.7v3.7c0.3,0.1,0.5,0.2,0.7,0.4c0.2,0.2,0.3,0.4,0.4,0.7 c0,0.1,0.1,0.3,0.1,0.4c0,0.7-0.4,1.2-1.1,1.4l0.6,1.9l1.3,4.2l-3.7,0.8l0.8-4.6L255.4,128.2z"></path> <g class="st42"> <path class="st40" d="M282.9,117.4c-4.9-6.7-13.4-9.4-21.3-10.6l1.3-0.8l33.8,5.3l-13.3,9.1l-0.2-0.7 C283.7,119.1,283.2,118,282.9,117.4z"></path> <path class="st40" d="M250.4,132c0-0.1,0.1-0.3,0.1-0.4c1.2-0.4,2.4-0.8,3.6-1.1c0,0,0.1,0,0.1,0c0.3-0.1,0.5-0.1,0.8-0.2 l-0.3,1.6c-1.4,0.1-2.9,0.2-4.3,0.3C250.4,132.1,250.4,132.1,250.4,132z"></path> <path class="st40" d="M282.7,118.1l0.7,2.3l1.5,5.2c-8.7-4.9-18.7-7.3-28.9-6.9v-1.3C260.1,116.6,270.4,115.1,282.7,118.1z"></path> <path class="st40" d="M254.1,117.9c0,0,0.4-0.1,1.3-0.3v1.2c-0.5,0-1,0.1-1.5,0.1L254.1,117.9z"></path> <path class="st40" d="M257.1,126.2c0,0.1,0.1,0.3,0.1,0.4c0,0.6-0.4,1.1-0.9,1.3c0.1-0.8,0.2-1.6,0.5-2.3 C256.9,125.8,257,126,257.1,126.2z"></path> <path class="st40" d="M256.2,128.5l0.4,1.4l1.3,4.2l-1,0.2C256.4,132.3,256.1,130.4,256.2,128.5z"></path> </g> </g> <g> <path class="st39" d="M199.3,80.7v11.8c-1.4,0.3-2.2,0.5-2.2,0.5l-1.6,5.6l-20.6-2.4L199.3,80.7z M212.4,72.3l-11.9,7.6v12.3 c7.2-1.5,25.1-4.1,46.5,1l1.2,4.1l23.1-15.8L212.4,72.3z"></path> <path class="st40" d="M195.5,98.6l1.6-5.6c0,0,0.8-0.2,2.2-0.5V99v0.1v6.6c-1.1,0.3-2,1.3-2,2.5c0,1.1,0.7,2.1,1.8,2.4 c0.1,0,0.2,0.1,0.4,0.1l0,0.2l-0.6,3.6c-0.5,0.1-0.9,0.2-1.4,0.3c-0.1,0-0.1,0-0.2,0c-2.2,0.5-4.3,1.2-6.3,2 c-0.2,0.1-0.4,0.2-0.6,0.2L195.5,98.6z M200.5,92.2v5.7v1.3v6.5c0.4,0.1,0.8,0.3,1.2,0.6c0.3,0.3,0.6,0.7,0.7,1.2 c0.1,0.2,0.1,0.5,0.1,0.7c0,1.2-0.8,2.1-1.8,2.5l1,3.3c17-3.1,35.7-0.3,45.4,1.6c0.4,0.1,0.8,0.2,1.2,0.2c2.5,0.5,4.2,0.9,5,1.2 c0.4,0.1,0.5,0.1,0.5,0.1l-5.7-19.8l-1.2-4.1C225.6,88.1,207.7,90.7,200.5,92.2z"></path> <path class="st41" d="M199.4,110.9l0-0.2c-0.1,0-0.3-0.1-0.4-0.1c-1-0.3-1.8-1.3-1.8-2.4c0-1.2,0.9-2.2,2-2.5v-6.6V99v-6.5V80.7 V80c0-0.1,0.1-0.3,0.2-0.4c0.3-0.2,1-0.4,1.6-0.1l-0.7,0.4v0v12.3v5.7v1.3v6.5c0.4,0.1,0.8,0.3,1.2,0.6c0.3,0.3,0.6,0.7,0.7,1.2 c0.1,0.2,0.1,0.5,0.1,0.7c0,1.2-0.8,2.1-1.8,2.5l1,3.3l2.2,7.3l-6.5,1.4l1.5-8.1L199.4,110.9z"></path> <g class="st42"> <path class="st40" d="M247.3,92.1c-8.5-11.7-23.4-16.4-37.1-18.4l2.2-1.4l58.9,9.2l-23.1,15.8l-0.3-1.2 C248.7,95,247.8,93.2,247.3,92.1z"></path> <path class="st40" d="M190.8,117.6c0-0.2,0.1-0.5,0.1-0.7c2-0.8,4.2-1.4,6.3-2c0.1,0,0.1,0,0.2,0c0.5-0.1,0.9-0.2,1.4-0.3 l-0.5,2.8c-2.5,0.2-5,0.4-7.5,0.5C190.8,117.7,190.8,117.7,190.8,117.6z"></path> <path class="st40" d="M247,93.2l1.2,4.1l2.6,9.1c-15.1-8.5-32.6-12.6-50.3-12v-2.2C207.7,90.7,225.6,88.1,247,93.2z"></path> <path class="st40" d="M197.1,93c0,0,0.8-0.2,2.2-0.5v2c-0.9,0-1.8,0.1-2.7,0.2L197.1,93z"></path> <path class="st40" d="M202.4,107.5c0.1,0.2,0.1,0.5,0.1,0.7c0,1.1-0.6,2-1.5,2.4c0.1-1.3,0.4-2.7,0.9-4.1 C202.1,106.7,202.3,107.1,202.4,107.5z"></path> <path class="st40" d="M200.9,111.4l0.8,2.5l2.2,7.3l-1.7,0.4C201.2,118,200.7,114.7,200.9,111.4z"></path> </g> </g> </g> </g> </svg> 